<svg xmlns="http://www.w3.org/2000/svg" viewBox="0 0 250 60" width="250" height="60" fill="none" stroke="currentColor" stroke-linecap="round" stroke-linejoin="round">
  <g transform="translate(5, 5)">
    <!-- Minimalist Monoline Tooth -->
    <path d="M 22 10 C 27 10, 31 13, 35 15 C 39 13, 43 10, 48 10 C 53 10, 56 14, 55 22 C 54 32, 48 42, 45 46 C 44 48, 42 48, 41 46 C 39 42, 38 40, 35 38 C 32 40, 31 42, 29 46 C 28 48, 26 48, 25 46 C 22 42, 16 32, 15 22 C 14 14, 17 10, 22 10 Z" stroke="#0e3e43" stroke-width="2.5" />
    
    <!-- Botanical Leaf sprouting inside -->
    <path d="M 35 15 C 38 18, 38 23, 34 26 C 30 29, 26 27, 26 27 M 26 27 C 29 24, 33 21, 35 15 Z" fill="#d06a4c" stroke="#d06a4c" stroke-width="1.5" />
    
    <!-- Central Leaf stem / vein -->
    <path d="M 35 15 L 35 38" stroke="#d06a4c" stroke-width="1.5" stroke-dasharray="1 1" />
  </g>
  
  <!-- Typography matching our brand layout -->
  <text x="75" y="28" font-family="'Plus Jakarta Sans', sans-serif" font-size="20" font-weight="700" fill="#0e3e43">Grove Dental</text>
  <text x="75" y="45" font-family="'Plus Jakarta Sans', sans-serif" font-size="10" font-weight="500" letter-spacing="2" fill="#2c3335">PRACTICE</text>
</svg>
